# xmcd
#
# Track frame offsets:
#	150
#	13812
#	29712
#	45087
#	61587
#	77562
#	91287
#	103212
#	117087
#	132537
#	146712
#	161262
#	175362
#	187887
#
# Disc length: 2685 seconds
#
# Revision: 0
# Processed by: cddbd v1.5.1PL0 Copyright (c) Steve Scherf et al.
# Submitted via: dBpowerAMP V4.0
#
DISCID=b20a7b0e
DTITLE=The Gatlin Brothers - Love Songs By The Gatlin Brothers
DYEAR=1997
DGENRE=Country
TTITLE0=Love
TTITLE1=Love Is Just A Game
TTITLE2=Easy On The Eye
TTITLE3=Do It Again Tonight
TTITLE4=If Practice Makes Perfect
TTITLE5=Love Of A Lifetime
TTITLE6=Warm And Tender
TTITLE7=Takin' A Chance On You
TTITLE8=Sure Feels Like Love
TTITLE9=Hold Me Closer
TTITLE10=It's Love At Last
TTITLE11=It Don't Get No Better Than This
TTITLE12=Take Me To Your Lovin' Place
TTITLE13=You Happened To Me
EXTD=
EXTT0=
EXTT1=
EXTT2=
EXTT3=
EXTT4=
EXTT5=
EXTT6=
EXTT7=
EXTT8=
EXTT9=
EXTT10=
EXTT11=
EXTT12=
EXTT13=
PLAYORDER=
